#Comment line ignore any data following # character 
#Hierarchical Translation and Rotation (.htr) file 
[Header]	
#Header keywords are followed by a single value 
FileType HTR		#Single word string
DataType HTRS		#Translation followed by rotation and scale data
FileVersion 1		#integer
NumSegments 84		#integer
NumFrames 2		#integer
DataFrameRate 30		#integer, data frame rate in this file
EulerRotationOrder ZYX
CalibrationUnits mm
RotationUnits Degrees
GlobalAxisofGravity Y
BoneLengthAxis Y
ScaleFactor 1.00
[SegmentNames&Hierarchy]
#CHILD	PARENT
MASTER GLOBAL
root MASTER
chest root
L_mid_tent01 root
R_mid_tent01 root
spine01 root
Bip01_Neck chest
L_humerus chest
R_humerus chest
weapon_bone chest
Bip01_Head Bip01_Neck
eye_left_bone Bip01_Head
eye_right_bone Bip01_Head
L_forearm L_humerus
L_front_hand L_forearm
L_weapon_bone L_forearm
L_front_hand01_01 L_front_hand
L_front_hand02_01 L_front_hand
L_front_hand03_01 L_front_hand
L_front_hand01_02 L_front_hand01_01
L_front_hand02_02 L_front_hand02_01
L_front_hand03_02 L_front_hand03_01
R_forearm R_humerus
R_front_hand R_forearm
R_weapon_bone R_forearm
R_front_hand01_01 R_front_hand
R_front_hand02_01 R_front_hand
R_front_hand03_01 R_front_hand
R_front_hand01_02 R_front_hand01_01
R_front_hand02_02 R_front_hand02_01
R_front_hand03_02 R_front_hand03_01
null_rope01_connect L_mid_tent01
Rope1_Seg01 null_rope01_connect
Rope1_Seg02 Rope1_Seg01
Rope1_Seg03 Rope1_Seg02
Rope1_Seg04 Rope1_Seg03
Rope1_Seg05 Rope1_Seg04
Rope1_Seg06 Rope1_Seg05
Rope1_Seg07 Rope1_Seg06
Rope1_Seg09 Rope1_Seg07
L_mid_hand01 Rope1_Seg09
L_mid_hand02 Rope1_Seg09
L_mid_hand03 Rope1_Seg09
null_rope02_connect R_mid_tent01
Rope2_Seg01 null_rope02_connect
Rope2_Seg02 Rope2_Seg01
Rope2_Seg03 Rope2_Seg02
Rope2_Seg04 Rope2_Seg03
Rope2_Seg05 Rope2_Seg04
Rope2_Seg06 Rope2_Seg05
Rope2_Seg07 Rope2_Seg06
Rope2_Seg09 Rope2_Seg07
R_mid_hand01 Rope2_Seg09
R_mid_hand02 Rope2_Seg09
R_mid_hand03 Rope2_Seg09
spine02 spine01
spine03 spine02
pelvis spine03
null_rope03_connect pelvis
null_rope04_connect pelvis
Rope3_Seg01 null_rope03_connect
Rope3_Seg02 Rope3_Seg01
Rope3_Seg03 Rope3_Seg02
Rope3_Seg04 Rope3_Seg03
Rope3_Seg05 Rope3_Seg04
Rope3_Seg06 Rope3_Seg05
Rope3_Seg07 Rope3_Seg06
Rope3_Seg08 Rope3_Seg07
Rope3_Seg09 Rope3_Seg08
R_rear_hand01 Rope3_Seg09
R_rear_hand02 Rope3_Seg09
R_rear_hand03 Rope3_Seg09
Rope4_Seg01 null_rope04_connect
Rope4_Seg02 Rope4_Seg01
Rope4_Seg03 Rope4_Seg02
Rope4_Seg04 Rope4_Seg03
Rope4_Seg05 Rope4_Seg04
Rope4_Seg06 Rope4_Seg05
Rope4_Seg07 Rope4_Seg06
Rope4_Seg08 Rope4_Seg07
Rope4_Seg09 Rope4_Seg08
L_rear_hand01 Rope4_Seg09
L_rear_hand02 Rope4_Seg09
L_rear_hand03 Rope4_Seg09
[BasePosition]
#SegmentName Tx, Ty, Tz, Rx, Ry, Rz, BoneLength
MASTER 0.000000 0.000000 0.000000 -90.000000 0.000000 0.000000 10.000000 
root 0.000000 0.000000 0.000000 0.000000 0.000000 0.000000 10.000000 
chest 0.000000 0.000000 0.000000 0.000000 0.000000 0.000000 10.000000 
L_mid_tent01 0.000000 0.000000 0.000000 0.000000 0.000000 0.000000 10.000000 
R_mid_tent01 0.000000 0.000000 0.000000 0.000000 0.000000 0.000000 10.000000 
spine01 0.000000 0.000000 0.000000 0.000000 0.000000 0.000000 10.000000 
Bip01_Neck 0.000000 0.000000 0.000000 0.000000 0.000000 0.000000 10.000000 
L_humerus 0.000000 0.000000 0.000000 0.000000 0.000000 0.000000 10.000000 
R_humerus 0.000000 0.000000 0.000000 0.000000 0.000000 0.000000 10.000000 
weapon_bone 0.000000 0.000000 0.000000 0.000000 0.000000 0.000000 10.000000 
Bip01_Head 0.000000 0.000000 0.000000 0.000000 0.000000 0.000000 10.000000 
eye_left_bone 0.000000 0.000000 0.000000 0.000000 0.000000 0.000000 10.000000 
eye_right_bone 0.000000 0.000000 0.000000 0.000000 0.000000 0.000000 10.000000 
L_forearm 0.000000 0.000000 0.000000 0.000000 0.000000 0.000000 10.000000 
L_front_hand 0.000000 0.000000 0.000000 0.000000 0.000000 0.000000 10.000000 
L_weapon_bone 0.000000 0.000000 0.000000 0.000000 0.000000 0.000000 10.000000 
L_front_hand01_01 0.000000 0.000000 0.000000 0.000000 0.000000 0.000000 10.000000 
L_front_hand02_01 0.000000 0.000000 0.000000 0.000000 0.000000 0.000000 10.000000 
L_front_hand03_01 0.000000 0.000000 0.000000 0.000000 0.000000 0.000000 10.000000 
L_front_hand01_02 0.000000 0.000000 0.000000 0.000000 0.000000 0.000000 10.000000 
L_front_hand02_02 0.000000 0.000000 0.000000 0.000000 0.000000 0.000000 10.000000 
L_front_hand03_02 0.000000 0.000000 0.000000 0.000000 0.000000 0.000000 10.000000 
R_forearm 0.000000 0.000000 0.000000 0.000000 0.000000 0.000000 10.000000 
R_front_hand 0.000000 0.000000 0.000000 0.000000 0.000000 0.000000 10.000000 
R_weapon_bone 0.000000 0.000000 0.000000 0.000000 0.000000 0.000000 10.000000 
R_front_hand01_01 0.000000 0.000000 0.000000 0.000000 0.000000 0.000000 10.000000 
R_front_hand02_01 0.000000 0.000000 0.000000 0.000000 0.000000 0.000000 10.000000 
R_front_hand03_01 0.000000 0.000000 0.000000 0.000000 0.000000 0.000000 10.000000 
R_front_hand01_02 0.000000 0.000000 0.000000 0.000000 0.000000 0.000000 10.000000 
R_front_hand02_02 0.000000 0.000000 0.000000 0.000000 0.000000 0.000000 10.000000 
R_front_hand03_02 0.000000 0.000000 0.000000 0.000000 0.000000 0.000000 10.000000 
null_rope01_connect 0.000000 0.000000 0.000000 0.000000 0.000000 0.000000 10.000000 
Rope1_Seg01 0.000000 0.000000 0.000000 0.000000 0.000000 0.000000 10.000000 
Rope1_Seg02 0.000000 0.000000 0.000000 0.000000 0.000000 0.000000 10.000000 
Rope1_Seg03 0.000000 0.000000 0.000000 0.000000 0.000000 0.000000 10.000000 
Rope1_Seg04 0.000000 0.000000 0.000000 0.000000 0.000000 0.000000 10.000000 
Rope1_Seg05 0.000000 0.000000 0.000000 0.000000 0.000000 0.000000 10.000000 
Rope1_Seg06 0.000000 0.000000 0.000000 0.000000 0.000000 0.000000 10.000000 
Rope1_Seg07 0.000000 0.000000 0.000000 0.000000 0.000000 0.000000 10.000000 
Rope1_Seg09 0.000000 0.000000 0.000000 0.000000 0.000000 0.000000 10.000000 
L_mid_hand01 0.000000 0.000000 0.000000 0.000000 0.000000 0.000000 10.000000 
L_mid_hand02 0.000000 0.000000 0.000000 0.000000 0.000000 0.000000 10.000000 
L_mid_hand03 0.000000 0.000000 0.000000 0.000000 0.000000 0.000000 10.000000 
null_rope02_connect 0.000000 0.000000 0.000000 0.000000 0.000000 0.000000 10.000000 
Rope2_Seg01 0.000000 0.000000 0.000000 0.000000 0.000000 0.000000 10.000000 
Rope2_Seg02 0.000000 0.000000 0.000000 0.000000 0.000000 0.000000 10.000000 
Rope2_Seg03 0.000000 0.000000 0.000000 0.000000 0.000000 0.000000 10.000000 
Rope2_Seg04 0.000000 0.000000 0.000000 0.000000 0.000000 0.000000 10.000000 
Rope2_Seg05 0.000000 0.000000 0.000000 0.000000 0.000000 0.000000 10.000000 
Rope2_Seg06 0.000000 0.000000 0.000000 0.000000 0.000000 0.000000 10.000000 
Rope2_Seg07 0.000000 0.000000 0.000000 0.000000 0.000000 0.000000 10.000000 
Rope2_Seg09 0.000000 0.000000 0.000000 0.000000 0.000000 0.000000 10.000000 
R_mid_hand01 0.000000 0.000000 0.000000 0.000000 0.000000 0.000000 10.000000 
R_mid_hand02 0.000000 0.000000 0.000000 0.000000 0.000000 0.000000 10.000000 
R_mid_hand03 0.000000 0.000000 0.000000 0.000000 0.000000 0.000000 10.000000 
spine02 0.000000 0.000000 0.000000 0.000000 0.000000 0.000000 10.000000 
spine03 0.000000 0.000000 0.000000 0.000000 0.000000 0.000000 10.000000 
pelvis 0.000000 0.000000 0.000000 0.000000 0.000000 0.000000 10.000000 
null_rope03_connect 0.000000 0.000000 0.000000 0.000000 0.000000 0.000000 10.000000 
null_rope04_connect 0.000000 0.000000 0.000000 0.000000 0.000000 0.000000 10.000000 
Rope3_Seg01 0.000000 0.000000 0.000000 0.000000 0.000000 0.000000 10.000000 
Rope3_Seg02 0.000000 0.000000 0.000000 0.000000 0.000000 0.000000 10.000000 
Rope3_Seg03 0.000000 0.000000 0.000000 0.000000 0.000000 0.000000 10.000000 
Rope3_Seg04 0.000000 0.000000 0.000000 0.000000 0.000000 0.000000 10.000000 
Rope3_Seg05 0.000000 0.000000 0.000000 0.000000 0.000000 0.000000 10.000000 
Rope3_Seg06 0.000000 0.000000 0.000000 0.000000 0.000000 0.000000 10.000000 
Rope3_Seg07 0.000000 0.000000 0.000000 0.000000 0.000000 0.000000 10.000000 
Rope3_Seg08 0.000000 0.000000 0.000000 0.000000 0.000000 0.000000 10.000000 
Rope3_Seg09 0.000000 0.000000 0.000000 0.000000 0.000000 0.000000 10.000000 
R_rear_hand01 0.000000 0.000000 0.000000 0.000000 0.000000 0.000000 10.000000 
R_rear_hand02 0.000000 0.000000 0.000000 0.000000 0.000000 0.000000 10.000000 
R_rear_hand03 0.000000 0.000000 0.000000 0.000000 0.000000 0.000000 10.000000 
Rope4_Seg01 0.000000 0.000000 0.000000 0.000000 0.000000 0.000000 10.000000 
Rope4_Seg02 0.000000 0.000000 0.000000 0.000000 0.000000 0.000000 10.000000 
Rope4_Seg03 0.000000 0.000000 0.000000 0.000000 0.000000 0.000000 10.000000 
Rope4_Seg04 0.000000 0.000000 0.000000 0.000000 0.000000 0.000000 10.000000 
Rope4_Seg05 0.000000 0.000000 0.000000 0.000000 0.000000 0.000000 10.000000 
Rope4_Seg06 0.000000 0.000000 0.000000 0.000000 0.000000 0.000000 10.000000 
Rope4_Seg07 0.000000 0.000000 0.000000 0.000000 0.000000 0.000000 10.000000 
Rope4_Seg08 0.000000 0.000000 0.000000 0.000000 0.000000 0.000000 10.000000 
Rope4_Seg09 0.000000 0.000000 0.000000 0.000000 0.000000 0.000000 10.000000 
L_rear_hand01 0.000000 0.000000 0.000000 0.000000 0.000000 0.000000 10.000000 
L_rear_hand02 0.000000 0.000000 0.000000 0.000000 0.000000 0.000000 10.000000 
L_rear_hand03 0.000000 0.000000 0.000000 0.000000 0.000000 0.000000 10.000000 
#Beginning of Data. Separated by tabs
#Fr	Tx	Ty	Tz	Rx	Ry	Rz	SF
[MASTER]
13 2142.633057 3238.095215 1815.708862 0.001660 0.001660 0.001660 4286.366211
14 2337.606201 3476.562500 1892.525024 0.001660 0.001660 0.001660 4597.014648
[root]
13 -33.421780 -36.305542 1491.292725 -117.972801 -16.381302 -104.581978 1492.109009
14 -34.888458 -39.834286 1495.017578 -117.784561 -17.031975 -104.415024 1495.955078
[chest]
13 -84.512650 -34.090519 0.000000 -15.473454 16.530981 147.040344 91.129311
14 -84.512650 -34.090519 0.000000 -16.122614 17.335373 146.425507 91.129311
[L_mid_tent01]
13 27.298565 22.179167 -249.918930 3.152733 16.107115 81.206940 252.381836
14 27.298521 22.179161 -249.918945 2.617249 21.034281 80.688667 252.381851
[R_mid_tent01]
13 23.228794 24.509907 226.238495 163.207108 -12.200950 79.201965 228.744751
14 23.228794 24.509907 226.238495 162.983200 -18.735613 80.589775 228.744751
[spine01]
13 -0.361383 -0.195265 0.000000 0.002059 0.001128 32.565418 0.410763
14 -0.361383 -0.195265 0.000000 0.002057 0.001131 32.395416 0.410763
[Bip01_Neck]
13 165.484543 71.581718 0.000119 176.643677 -1.657967 43.431911 180.302734
14 165.484543 71.581718 0.000119 176.643677 -1.657967 43.431911 180.302734
[L_humerus]
13 -13.983130 -135.272980 -120.471481 -7.088151 63.631927 82.747894 181.680161
14 -13.983130 -135.272980 -120.471481 -7.099333 63.593979 82.730377 181.680161
[R_humerus]
13 -13.983309 -135.273102 125.287651 25.568949 -64.411087 70.160255 184.909012
14 -13.983309 -135.273102 125.287651 25.555712 -64.368950 70.173347 184.909012
[weapon_bone]
13 235.964890 -300.705902 0.000000 0.000000 -89.951546 -128.212341 382.234833
14 235.964890 -300.705902 0.000000 0.000000 -89.951546 -128.212341 382.234833
[Bip01_Head]
13 213.673691 185.076904 20.027313 4.962490 2.797846 -43.898743 283.391968
14 213.666672 185.095810 19.782104 4.440152 -1.457900 -43.897720 283.381805
[eye_left_bone]
13 -24.626970 125.451866 -64.772606 0.000000 -90.000000 -99.840431 143.318359
14 -24.626970 125.451866 -64.772606 0.000000 -90.000000 -99.840431 143.318359
[eye_right_bone]
13 -24.626970 125.451866 64.327362 0.000000 -89.965736 80.156380 143.117676
14 -24.626970 125.451866 64.327362 0.000000 -89.965736 80.156380 143.117676
[L_forearm]
13 322.776093 0.000000 -0.000119 0.000432 -0.002307 -111.188736 322.776093
14 322.776093 0.000000 -0.000119 0.000432 -0.002307 -111.209717 322.776093
[L_front_hand]
13 241.149185 -0.042021 -3.300071 -178.667953 -1.835447 -27.422350 241.171753
14 241.149185 -0.042021 -3.300071 -178.667953 -1.835447 -27.422342 241.171753
[L_weapon_bone]
13 156.183838 0.000000 0.000000 0.000014 0.000007 0.000001 156.183838
14 156.183838 0.000000 0.000000 0.000014 0.000007 0.000001 156.183838
[L_front_hand01_01]
13 86.095154 20.947098 -0.655860 -0.273295 -0.533469 64.985298 88.609184
14 86.095154 20.947098 -0.655860 -0.273650 -0.533287 65.061523 88.609184
[L_front_hand02_01]
13 86.935165 -11.437475 24.513514 140.772385 -54.262844 -45.183468 91.046425
14 86.935165 -11.437475 24.513514 140.858566 -54.305298 -45.287003 91.046425
[L_front_hand03_01]
13 86.637497 -14.123976 -20.424902 -141.183044 52.494118 -47.265888 90.126129
14 86.637497 -14.123976 -20.424902 -141.258987 52.537949 -47.363300 90.126129
[L_front_hand01_02]
13 71.020905 -0.000179 0.000030 0.000315 -0.002326 -105.414528 71.020905
14 71.020905 -0.000179 0.000030 0.000315 -0.002326 -105.409866 71.020905
[L_front_hand02_02]
13 71.020927 -0.000119 0.000060 0.000315 -0.002326 -105.414528 71.020927
14 71.020927 -0.000119 0.000060 0.000315 -0.002326 -105.409866 71.020927
[L_front_hand03_02]
13 71.020905 -0.000060 0.000060 0.000315 -0.002326 -105.414528 71.020905
14 71.020905 -0.000060 0.000060 0.000315 -0.002326 -105.409866 71.020905
[R_forearm]
13 322.776428 -0.000060 0.000030 0.201059 0.068311 -109.855377 322.776428
14 322.776428 -0.000060 0.000030 0.201055 0.068322 -109.861427 322.776428
[R_front_hand]
13 238.847015 -0.006795 2.210259 -2.635298 -10.645461 -26.312506 238.857239
14 238.847015 -0.006795 2.210259 -2.635298 -10.645461 -26.312506 238.857239
[R_weapon_bone]
13 155.664093 0.002503 -0.000030 0.003487 0.001180 -90.988930 155.664078
14 155.664093 0.002503 -0.000030 0.003487 0.001180 -90.988930 155.664078
[R_front_hand01_01]
13 87.624611 14.231146 22.918642 -139.406311 -53.422413 43.599293 91.683487
14 87.624611 14.231146 22.918642 -138.707092 -52.961746 42.720669 91.683487
[R_front_hand02_01]
13 89.356956 14.367283 -19.491137 140.210251 51.852013 46.267590 92.579636
14 89.356956 14.367283 -19.491137 139.537384 51.404167 45.405891 92.579636
[R_front_hand03_01]
13 87.286232 -22.307278 -0.143439 0.071981 -0.448622 -63.915920 90.091743
14 87.286232 -22.307278 -0.143439 0.065057 -0.451640 -63.223511 90.091743
[R_front_hand01_02]
13 71.020905 0.000060 0.000119 0.002323 -0.000334 106.381714 71.020905
14 71.020905 0.000060 0.000119 0.002323 -0.000334 106.381714 71.020905
[R_front_hand02_02]
13 71.020844 -0.000030 -0.000119 0.002323 -0.000334 106.381714 71.020836
14 71.020844 -0.000030 -0.000119 0.002323 -0.000334 106.381714 71.020836
[R_front_hand03_02]
13 71.020905 0.000000 0.000030 0.002323 -0.000334 106.381714 71.020905
14 71.020905 0.000000 0.000030 0.002323 -0.000334 106.381714 71.020905
[null_rope01_connect]
13 328.732483 0.000000 -0.000238 -143.922623 -38.869255 165.540329 328.732483
14 328.732483 0.000000 -0.000238 -145.237930 -34.328552 167.598557 328.732483
[Rope1_Seg01]
13 -0.000011 0.000027 0.000046 147.326309 33.122662 -151.760498 0.000054
14 -0.000012 0.000026 0.000050 118.077126 14.732771 -165.311310 0.000057
[Rope1_Seg02]
13 139.999863 -0.000179 0.000000 5.376174 -12.535493 6.577899 139.999863
14 139.999863 -0.000179 0.000000 13.517899 -22.195539 -1.946331 139.999863
[Rope1_Seg03]
13 139.999924 0.000060 -0.000060 -2.922338 -19.084557 20.984797 139.999924
14 139.999924 0.000060 -0.000060 0.707974 -27.638741 12.597182 139.999924
[Rope1_Seg04]
13 139.999924 -0.000060 -0.000119 28.939695 -14.718669 -43.710594 139.999924
14 139.999924 -0.000060 -0.000119 14.831013 -25.700985 -39.161598 139.999924
[Rope1_Seg05]
13 139.999832 0.000119 -0.000060 12.787496 -11.518129 -13.168267 139.999832
14 139.999832 0.000119 -0.000060 10.878034 -18.384285 -25.359547 139.999832
[Rope1_Seg06]
13 139.999954 0.000119 -0.000060 4.383604 -5.558460 -3.705147 139.999954
14 139.999954 0.000119 -0.000060 2.859259 -7.457392 -6.513974 139.999954
[Rope1_Seg07]
13 139.999985 0.000060 0.000000 1.426755 -2.027061 -1.141588 139.999985
14 139.999985 0.000060 0.000000 0.872333 -2.663533 -2.121282 139.999985
[Rope1_Seg09]
13 121.602913 0.000119 -0.000089 -89.793175 -1.359789 0.847147 121.602913
14 121.602913 0.000119 -0.000089 -89.793175 -1.359789 0.847147 121.602913
[L_mid_hand01]
13 103.859421 1.038730 8.195221 112.987701 -50.601227 -18.681456 104.187431
14 103.859421 1.038730 8.195221 115.405022 -54.702587 -21.718943 104.187431
[L_mid_hand02]
13 105.572853 -4.139662 -10.864139 -153.018723 36.866009 -49.082401 106.211075
14 105.572853 -4.139662 -10.864139 -156.173538 38.796780 -54.226360 106.211075
[L_mid_hand03]
13 104.641464 17.579376 -3.913581 -11.755013 14.733717 54.618225 106.179977
14 104.641464 17.579376 -3.913581 -10.557026 15.605444 59.191402 106.179977
[null_rope02_connect]
13 328.732849 0.000179 -0.000119 1.661458 67.079247 160.293533 328.732849
14 328.732849 0.000179 -0.000119 -5.789820 73.229065 151.942886 328.732849
[Rope2_Seg01]
13 0.000050 0.000107 0.000000 141.277573 60.264507 -92.451767 0.000118
14 0.000051 0.000103 0.000000 -154.538696 46.815300 -41.958519 0.000115
[Rope2_Seg02]
13 139.999741 -0.000060 -0.000119 2.587707 -13.283357 0.541995 139.999756
14 139.999741 -0.000060 -0.000119 -10.601110 -15.243633 16.287912 139.999756
[Rope2_Seg03]
13 140.000107 0.000030 0.000000 3.128012 -6.336947 -5.232334 140.000107
14 140.000107 0.000030 0.000000 -2.551751 -16.920778 10.055325 140.000107
[Rope2_Seg04]
13 139.999802 0.000000 -0.000060 -1.477978 -3.487606 6.433390 139.999802
14 139.999802 0.000000 -0.000060 -1.065211 -9.251821 6.422680 139.999802
[Rope2_Seg05]
13 139.999985 -0.000060 0.000119 -3.490947 -6.122739 31.490864 139.999985
14 139.999985 -0.000060 0.000119 -2.012776 -7.951139 19.461569 139.999985
[Rope2_Seg06]
13 139.999893 -0.000030 -0.000119 4.933067 -7.493484 30.164093 139.999893
14 139.999893 -0.000030 -0.000119 5.562437 -13.018749 36.387268 139.999893
[Rope2_Seg07]
13 139.999893 0.000060 -0.000060 6.931437 -2.279832 15.372762 139.999893
14 139.999893 0.000060 -0.000060 13.343526 -5.287206 21.603758 139.999893
[Rope2_Seg09]
13 121.338966 0.000089 -0.000060 33.793236 -1.359788 -0.847141 121.338966
14 121.338966 0.000089 -0.000060 33.793236 -1.359788 -0.847141 121.338966
[R_mid_hand01]
13 104.680779 11.144459 -10.335981 -37.204079 31.906813 37.576260 105.778534
14 104.680779 11.144459 -10.335981 -36.578453 32.644390 38.740570 105.778534
[R_mid_hand02]
13 104.070427 2.443552 8.231699 70.367462 -42.427391 14.067809 104.424065
14 104.070427 2.443552 8.231699 69.973366 -43.581707 14.639650 104.424065
[R_mid_hand03]
13 106.028137 -11.221827 -5.996406 -169.893616 12.226661 -47.211018 106.788818
14 106.028137 -11.221827 -5.996406 -170.161224 12.441347 -48.449886 106.788818
[spine02]
13 129.756927 0.001550 0.000119 0.538614 -4.023778 -15.474613 129.756927
14 129.756927 0.001550 0.000119 0.539668 -4.023637 -15.504617 129.756927
[spine03]
13 78.614044 0.081741 -4.898909 2.000257 3.776486 18.067289 78.766579
14 78.614037 0.081738 -4.898900 2.000918 3.776135 18.087353 78.766563
[pelvis]
13 169.435242 0.051022 0.000000 -0.070433 -0.177696 17.333202 169.435257
14 169.435242 0.051022 0.000000 -0.070464 -0.177683 17.353209 169.435257
[null_rope03_connect]
13 -1.257226 -2.466202 137.391083 -140.510101 -56.192139 -168.845459 137.418976
14 -1.257226 -2.466202 137.391083 -140.082657 -56.344761 -168.395889 137.418976
[null_rope04_connect]
13 -1.259640 -2.480268 -137.844437 -140.510101 -56.192139 -168.845459 137.872513
14 -1.259640 -2.480268 -137.844437 -140.082657 -56.344761 -168.395889 137.872513
[Rope3_Seg01]
13 -0.000013 -0.000237 -0.000153 -168.517059 26.036488 -146.026718 0.000282
14 -0.000013 -0.000250 -0.000153 -161.308502 26.662912 -137.721252 0.000293
[Rope3_Seg02]
13 139.999924 -0.000119 0.000060 -6.848526 -5.392409 -1.838126 139.999924
14 139.999924 -0.000119 0.000060 -5.152223 -4.285697 -0.528733 139.999924
[Rope3_Seg03]
13 139.999924 -0.000119 0.000119 -4.362879 -4.796052 -2.327221 139.999924
14 139.999924 -0.000119 0.000119 -3.553943 -3.623301 -0.871059 139.999924
[Rope3_Seg04]
13 139.999924 0.000119 0.000000 -3.438895 -5.305243 -3.257194 139.999924
14 139.999924 0.000119 0.000000 -2.259564 -2.754374 -1.022706 139.999924
[Rope3_Seg05]
13 139.999924 -0.000238 0.000060 -1.280989 -2.459447 -1.553971 139.999924
14 139.999924 -0.000238 0.000060 -2.767209 -3.293071 -0.591873 139.999924
[Rope3_Seg06]
13 139.999893 -0.000119 -0.000060 0.201384 0.287189 0.753918 139.999893
14 139.999893 -0.000119 -0.000060 -4.414765 -5.962757 -0.709959 139.999893
[Rope3_Seg07]
13 139.999771 0.000060 -0.000119 0.234616 0.528464 1.179851 139.999771
14 139.999771 0.000060 -0.000119 -4.559597 -8.596623 -2.028193 139.999771
[Rope3_Seg08]
13 139.999985 -0.000060 0.000000 -0.192693 -0.294129 0.570916 139.999985
14 139.999985 -0.000060 0.000000 -2.770128 -7.890587 -2.594414 139.999985
[Rope3_Seg09]
13 90.185997 -0.000179 -0.000060 89.793228 -1.359877 -0.847183 90.185997
14 90.185997 -0.000179 -0.000060 89.793228 -1.359877 -0.847183 90.185997
[R_rear_hand01]
13 103.366196 -6.073594 -10.757982 -165.129318 19.906286 -41.459824 104.101845
14 103.366196 -6.073594 -10.757982 -166.165070 20.624767 -44.436901 104.101845
[R_rear_hand02]
13 100.509819 12.039542 -7.992327 -30.361929 25.330688 39.162518 101.543350
14 100.509819 12.039542 -7.992327 -29.134808 26.762827 41.953499 101.543350
[R_rear_hand03]
13 101.539970 5.215704 5.435467 82.326164 -42.112484 9.027008 101.819031
14 101.539970 5.215704 5.435467 81.948593 -44.972103 9.574173 101.819031
[Rope4_Seg01]
13 0.000000 -0.000393 -0.000198 38.365059 30.558268 -126.687851 0.000440
14 0.000000 -0.000422 -0.000202 38.631695 19.080374 -131.708008 0.000468
[Rope4_Seg02]
13 139.999985 0.000060 0.000119 -1.208721 -6.445605 -9.556904 139.999985
14 139.999985 0.000060 0.000119 -4.858161 0.503559 -12.180350 139.999985
[Rope4_Seg03]
13 139.999924 0.000000 -0.000238 -0.663228 -5.020073 -4.495212 139.999924
14 139.999924 0.000000 -0.000238 -1.612601 -1.730727 -4.555879 139.999924
[Rope4_Seg04]
13 139.999985 0.000000 0.000119 -0.441160 -2.093688 -2.028364 139.999985
14 139.999985 0.000000 0.000119 -0.993620 0.350755 -1.955102 139.999985
[Rope4_Seg05]
13 139.999802 -0.000060 -0.000119 -0.680544 2.011514 -0.539569 139.999802
14 139.999802 -0.000060 -0.000119 -1.514849 3.641291 -1.625150 139.999802
[Rope4_Seg06]
13 139.999924 0.000000 0.000060 -1.165268 8.478623 0.649301 139.999924
14 139.999924 0.000000 0.000060 -3.335345 13.253075 -3.210442 139.999924
[Rope4_Seg07]
13 139.999802 0.000000 0.000000 -0.857526 17.738384 1.679992 139.999802
14 139.999802 0.000000 0.000000 -2.654214 26.524883 -6.618985 139.999802
[Rope4_Seg08]
13 139.999924 0.000000 0.000119 -0.484816 20.003996 1.684012 139.999924
14 139.999924 0.000000 0.000119 3.090897 28.564667 -6.879824 139.999924
[Rope4_Seg09]
13 90.185791 0.000060 0.000060 -135.617828 2.228885 0.850567 90.185791
14 90.185791 0.000060 0.000060 -135.617828 2.228885 0.850567 90.185791
[L_rear_hand01]
13 101.696655 -8.392275 -7.654577 -23.837065 -31.497852 127.196877 102.329041
14 101.696655 -8.392275 -7.654577 -21.399752 -33.105400 122.636459 102.329041
[L_rear_hand02]
13 102.726799 -1.568258 5.773216 79.940979 55.428272 167.825531 102.900848
14 102.726799 -1.568258 5.773216 78.723900 59.531788 166.383713 102.900848
[L_rear_hand03]
13 104.552910 9.721220 -10.420293 -170.300186 -22.788525 -124.407036 105.519653
14 104.552910 9.721220 -10.420293 -172.062332 -23.429153 -119.922249 105.519653
